/* XPM */
static char *ad55a8063ab846919a8cf8f1afe0b439Oi8yIjNuSCh2yHJs[] = {
/* columns rows colors chars-per-pixel */
"40 40 4 1 ",
"  c None",
". c black",
"X c #010100",
"o c #010101",
/* pixels */
"                                        ",
"                                        ",
"                  XX                    ",
"                  XX                    ",
"                  XX                    ",
"                  XX                    ",
"                  XX                    ",
"                  XX                    ",
"                  XX                    ",
"                  XX                    ",
"                  XX                    ",
"                  XX                    ",
"                  XX                    ",
"                  XX                    ",
"                  XX                    ",
"                  XX                    ",
"                                        ",
"                                        ",
"  XXXXXXXXXXXXXX      XXXXXXXXXXXXXX    ",
"  XXXXXXXXXXXXXX      XXXXXXXXXXXXXX    ",
"                                        ",
"                                        ",
"                  XX                    ",
"                  XX                    ",
"                  XX                    ",
"                  XX                    ",
"                  XX                    ",
"                  XX                    ",
"                  XX                    ",
"                  XX                    ",
"                  XX                    ",
"                  XX                    ",
"                  XX                    ",
"                  XX                    ",
"                  XX                    ",
"                  XX                    ",
"                                        ",
"                                        ",
"                                        ",
"                                        "
};
